<mxfile host="app.diagrams.net" modified="2024-04-16T20:51:19.608Z" agent="Mozilla/5.0 (Windows NT 10.0; Win64; x64) AppleWebKit/537.36 (KHTML, like Gecko) Chrome/123.0.0.0 Safari/537.36" etag="3_dXxvGZizAiZM6VhbPP" version="24.2.5" type="device">
  <diagram name="Страница — 1" id="cLS98KIUrg3zcf6zg0_d">
    <mxGraphModel dx="989" dy="538" grid="0" gridSize="10" guides="1" tooltips="1" connect="1" arrows="1" fold="1" page="1" pageScale="1" pageWidth="827" pageHeight="1169" math="0" shadow="0">
      <root>
        <mxCell id="0" />
        <mxCell id="1" parent="0" />
        <mxCell id="O5MOmxGE6WflzpSw0o6A-30" style="rounded=0;orthogonalLoop=1;jettySize=auto;html=1;exitX=0.5;exitY=0.5;exitDx=0;exitDy=0;exitPerimeter=0;entryX=0;entryY=0.5;entryDx=0;entryDy=0;endArrow=none;endFill=0;" edge="1" parent="1" source="O5MOmxGE6WflzpSw0o6A-1" target="O5MOmxGE6WflzpSw0o6A-7">
          <mxGeometry relative="1" as="geometry" />
        </mxCell>
        <mxCell id="O5MOmxGE6WflzpSw0o6A-31" style="rounded=0;orthogonalLoop=1;jettySize=auto;html=1;exitX=0.5;exitY=0.5;exitDx=0;exitDy=0;exitPerimeter=0;entryX=0;entryY=0.5;entryDx=0;entryDy=0;endArrow=none;endFill=0;" edge="1" parent="1" source="O5MOmxGE6WflzpSw0o6A-1" target="O5MOmxGE6WflzpSw0o6A-11">
          <mxGeometry relative="1" as="geometry" />
        </mxCell>
        <mxCell id="O5MOmxGE6WflzpSw0o6A-32" style="rounded=0;orthogonalLoop=1;jettySize=auto;html=1;exitX=0.5;exitY=0.5;exitDx=0;exitDy=0;exitPerimeter=0;entryX=0;entryY=0.5;entryDx=0;entryDy=0;endArrow=none;endFill=0;" edge="1" parent="1" source="O5MOmxGE6WflzpSw0o6A-1" target="O5MOmxGE6WflzpSw0o6A-16">
          <mxGeometry relative="1" as="geometry" />
        </mxCell>
        <mxCell id="O5MOmxGE6WflzpSw0o6A-33" style="rounded=0;orthogonalLoop=1;jettySize=auto;html=1;exitX=0.5;exitY=0.5;exitDx=0;exitDy=0;exitPerimeter=0;entryX=0;entryY=0.5;entryDx=0;entryDy=0;endArrow=none;endFill=0;" edge="1" parent="1" source="O5MOmxGE6WflzpSw0o6A-1" target="O5MOmxGE6WflzpSw0o6A-17">
          <mxGeometry relative="1" as="geometry" />
        </mxCell>
        <mxCell id="O5MOmxGE6WflzpSw0o6A-34" style="rounded=0;orthogonalLoop=1;jettySize=auto;html=1;exitX=0.5;exitY=0.5;exitDx=0;exitDy=0;exitPerimeter=0;entryX=0;entryY=0.5;entryDx=0;entryDy=0;endArrow=none;endFill=0;" edge="1" parent="1" source="O5MOmxGE6WflzpSw0o6A-1" target="O5MOmxGE6WflzpSw0o6A-18">
          <mxGeometry relative="1" as="geometry" />
        </mxCell>
        <mxCell id="O5MOmxGE6WflzpSw0o6A-35" style="rounded=0;orthogonalLoop=1;jettySize=auto;html=1;exitX=0.5;exitY=0.5;exitDx=0;exitDy=0;exitPerimeter=0;entryX=0;entryY=0.5;entryDx=0;entryDy=0;endArrow=none;endFill=0;" edge="1" parent="1" source="O5MOmxGE6WflzpSw0o6A-1" target="O5MOmxGE6WflzpSw0o6A-19">
          <mxGeometry relative="1" as="geometry" />
        </mxCell>
        <mxCell id="O5MOmxGE6WflzpSw0o6A-36" style="rounded=0;orthogonalLoop=1;jettySize=auto;html=1;exitX=0.5;exitY=0.5;exitDx=0;exitDy=0;exitPerimeter=0;entryX=1;entryY=0;entryDx=0;entryDy=0;endArrow=none;endFill=0;" edge="1" parent="1" source="O5MOmxGE6WflzpSw0o6A-1" target="O5MOmxGE6WflzpSw0o6A-10">
          <mxGeometry relative="1" as="geometry" />
        </mxCell>
        <mxCell id="O5MOmxGE6WflzpSw0o6A-37" style="rounded=0;orthogonalLoop=1;jettySize=auto;html=1;exitX=0.5;exitY=0.5;exitDx=0;exitDy=0;exitPerimeter=0;entryX=1;entryY=0.5;entryDx=0;entryDy=0;endArrow=none;endFill=0;" edge="1" parent="1" source="O5MOmxGE6WflzpSw0o6A-1" target="O5MOmxGE6WflzpSw0o6A-9">
          <mxGeometry relative="1" as="geometry" />
        </mxCell>
        <mxCell id="O5MOmxGE6WflzpSw0o6A-38" style="rounded=0;orthogonalLoop=1;jettySize=auto;html=1;exitX=0.5;exitY=0.5;exitDx=0;exitDy=0;exitPerimeter=0;entryX=1;entryY=1;entryDx=0;entryDy=0;endArrow=none;endFill=0;" edge="1" parent="1" source="O5MOmxGE6WflzpSw0o6A-1" target="O5MOmxGE6WflzpSw0o6A-8">
          <mxGeometry relative="1" as="geometry" />
        </mxCell>
        <mxCell id="O5MOmxGE6WflzpSw0o6A-1" value="Клиент" style="shape=umlActor;verticalLabelPosition=bottom;verticalAlign=top;html=1;outlineConnect=0;" vertex="1" parent="1">
          <mxGeometry x="290" y="300" width="30" height="60" as="geometry" />
        </mxCell>
        <mxCell id="O5MOmxGE6WflzpSw0o6A-20" style="rounded=0;orthogonalLoop=1;jettySize=auto;html=1;exitX=0.5;exitY=0.5;exitDx=0;exitDy=0;exitPerimeter=0;startArrow=none;startFill=0;endArrow=none;endFill=0;" edge="1" parent="1" source="O5MOmxGE6WflzpSw0o6A-2" target="O5MOmxGE6WflzpSw0o6A-12">
          <mxGeometry relative="1" as="geometry" />
        </mxCell>
        <mxCell id="O5MOmxGE6WflzpSw0o6A-21" style="rounded=0;orthogonalLoop=1;jettySize=auto;html=1;exitX=0.5;exitY=0.5;exitDx=0;exitDy=0;exitPerimeter=0;entryX=0;entryY=0.5;entryDx=0;entryDy=0;endArrow=none;endFill=0;jumpStyle=none;" edge="1" parent="1" source="O5MOmxGE6WflzpSw0o6A-2" target="O5MOmxGE6WflzpSw0o6A-13">
          <mxGeometry relative="1" as="geometry" />
        </mxCell>
        <mxCell id="O5MOmxGE6WflzpSw0o6A-22" style="rounded=0;orthogonalLoop=1;jettySize=auto;html=1;exitX=0.5;exitY=0.5;exitDx=0;exitDy=0;exitPerimeter=0;entryX=0;entryY=0;entryDx=0;entryDy=0;endArrow=none;endFill=0;" edge="1" parent="1" source="O5MOmxGE6WflzpSw0o6A-2" target="O5MOmxGE6WflzpSw0o6A-14">
          <mxGeometry relative="1" as="geometry" />
        </mxCell>
        <mxCell id="O5MOmxGE6WflzpSw0o6A-23" style="rounded=0;orthogonalLoop=1;jettySize=auto;html=1;exitX=0.5;exitY=0.5;exitDx=0;exitDy=0;exitPerimeter=0;entryX=0.5;entryY=0;entryDx=0;entryDy=0;endArrow=none;endFill=0;" edge="1" parent="1" source="O5MOmxGE6WflzpSw0o6A-2" target="O5MOmxGE6WflzpSw0o6A-15">
          <mxGeometry relative="1" as="geometry" />
        </mxCell>
        <mxCell id="O5MOmxGE6WflzpSw0o6A-24" style="rounded=0;orthogonalLoop=1;jettySize=auto;html=1;exitX=0.5;exitY=0.5;exitDx=0;exitDy=0;exitPerimeter=0;entryX=1;entryY=0.5;entryDx=0;entryDy=0;endArrow=none;endFill=0;" edge="1" parent="1" source="O5MOmxGE6WflzpSw0o6A-2" target="O5MOmxGE6WflzpSw0o6A-7">
          <mxGeometry relative="1" as="geometry" />
        </mxCell>
        <mxCell id="O5MOmxGE6WflzpSw0o6A-25" style="rounded=0;orthogonalLoop=1;jettySize=auto;html=1;exitX=0.5;exitY=0.5;exitDx=0;exitDy=0;exitPerimeter=0;entryX=1;entryY=0.5;entryDx=0;entryDy=0;endArrow=none;endFill=0;" edge="1" parent="1" source="O5MOmxGE6WflzpSw0o6A-2" target="O5MOmxGE6WflzpSw0o6A-11">
          <mxGeometry relative="1" as="geometry" />
        </mxCell>
        <mxCell id="O5MOmxGE6WflzpSw0o6A-26" style="rounded=0;orthogonalLoop=1;jettySize=auto;html=1;exitX=0.5;exitY=0.5;exitDx=0;exitDy=0;exitPerimeter=0;entryX=1;entryY=0.5;entryDx=0;entryDy=0;endArrow=none;endFill=0;" edge="1" parent="1" source="O5MOmxGE6WflzpSw0o6A-2" target="O5MOmxGE6WflzpSw0o6A-16">
          <mxGeometry relative="1" as="geometry" />
        </mxCell>
        <mxCell id="O5MOmxGE6WflzpSw0o6A-27" style="rounded=0;orthogonalLoop=1;jettySize=auto;html=1;exitX=0.5;exitY=0.5;exitDx=0;exitDy=0;exitPerimeter=0;entryX=1;entryY=0.5;entryDx=0;entryDy=0;endArrow=none;endFill=0;" edge="1" parent="1" source="O5MOmxGE6WflzpSw0o6A-2" target="O5MOmxGE6WflzpSw0o6A-17">
          <mxGeometry relative="1" as="geometry" />
        </mxCell>
        <mxCell id="O5MOmxGE6WflzpSw0o6A-28" style="rounded=0;orthogonalLoop=1;jettySize=auto;html=1;exitX=0.5;exitY=0.5;exitDx=0;exitDy=0;exitPerimeter=0;entryX=1;entryY=0.5;entryDx=0;entryDy=0;endArrow=none;endFill=0;" edge="1" parent="1" source="O5MOmxGE6WflzpSw0o6A-2" target="O5MOmxGE6WflzpSw0o6A-18">
          <mxGeometry relative="1" as="geometry" />
        </mxCell>
        <mxCell id="O5MOmxGE6WflzpSw0o6A-29" style="rounded=0;orthogonalLoop=1;jettySize=auto;html=1;exitX=0.5;exitY=0.5;exitDx=0;exitDy=0;exitPerimeter=0;entryX=1;entryY=0.5;entryDx=0;entryDy=0;endArrow=none;endFill=0;" edge="1" parent="1" source="O5MOmxGE6WflzpSw0o6A-2" target="O5MOmxGE6WflzpSw0o6A-19">
          <mxGeometry relative="1" as="geometry" />
        </mxCell>
        <mxCell id="O5MOmxGE6WflzpSw0o6A-2" value="Администратор" style="shape=umlActor;verticalLabelPosition=bottom;verticalAlign=top;html=1;outlineConnect=0;" vertex="1" parent="1">
          <mxGeometry x="550" y="300" width="30" height="60" as="geometry" />
        </mxCell>
        <mxCell id="O5MOmxGE6WflzpSw0o6A-7" value="&lt;font style=&quot;font-size: 8px;&quot; face=&quot;Helvetica&quot;&gt;&lt;span style=&quot;&quot;&gt;Посмотреть&lt;/span&gt;&lt;br style=&quot;&quot;&gt;&lt;span style=&quot;&quot;&gt;информацию о кинофильме&lt;/span&gt;&lt;/font&gt;" style="ellipse;whiteSpace=wrap;html=1;" vertex="1" parent="1">
          <mxGeometry x="369" y="105" width="90" height="60" as="geometry" />
        </mxCell>
        <mxCell id="O5MOmxGE6WflzpSw0o6A-8" value="&lt;span style=&quot;font-size: 8px;&quot;&gt;Оценить кинофильм&lt;/span&gt;" style="ellipse;whiteSpace=wrap;html=1;" vertex="1" parent="1">
          <mxGeometry x="180" y="235" width="90" height="40" as="geometry" />
        </mxCell>
        <mxCell id="O5MOmxGE6WflzpSw0o6A-9" value="&lt;span style=&quot;font-size: 8px;&quot;&gt;Написать рецензию к кинофильму&lt;/span&gt;" style="ellipse;whiteSpace=wrap;html=1;" vertex="1" parent="1">
          <mxGeometry x="130" y="315" width="90" height="60" as="geometry" />
        </mxCell>
        <mxCell id="O5MOmxGE6WflzpSw0o6A-10" value="&lt;span style=&quot;font-size: 8px;&quot;&gt;Оценить рецензии других пользователей&lt;/span&gt;" style="ellipse;whiteSpace=wrap;html=1;" vertex="1" parent="1">
          <mxGeometry x="170" y="395" width="90" height="60" as="geometry" />
        </mxCell>
        <mxCell id="O5MOmxGE6WflzpSw0o6A-11" value="&lt;span style=&quot;font-size: 8px;&quot;&gt;Прочитать рецензии других пользователей&lt;/span&gt;" style="ellipse;whiteSpace=wrap;html=1;" vertex="1" parent="1">
          <mxGeometry x="369" y="175" width="90" height="60" as="geometry" />
        </mxCell>
        <mxCell id="O5MOmxGE6WflzpSw0o6A-12" value="&lt;span style=&quot;font-size: 8px;&quot;&gt;Добавить кинофильм в каталог&lt;/span&gt;" style="ellipse;whiteSpace=wrap;html=1;" vertex="1" parent="1">
          <mxGeometry x="540" y="180" width="90" height="60" as="geometry" />
        </mxCell>
        <mxCell id="O5MOmxGE6WflzpSw0o6A-13" value="&lt;span style=&quot;font-size: 8px;&quot;&gt;Изменить информацию о кинофильме&lt;/span&gt;" style="ellipse;whiteSpace=wrap;html=1;" vertex="1" parent="1">
          <mxGeometry x="630" y="260" width="90" height="60" as="geometry" />
        </mxCell>
        <mxCell id="O5MOmxGE6WflzpSw0o6A-14" value="&lt;span style=&quot;font-size: 8px;&quot;&gt;Удалить кинофильм&lt;/span&gt;" style="ellipse;whiteSpace=wrap;html=1;" vertex="1" parent="1">
          <mxGeometry x="630" y="340" width="90" height="40" as="geometry" />
        </mxCell>
        <mxCell id="O5MOmxGE6WflzpSw0o6A-15" value="&lt;span style=&quot;font-size: 8px;&quot;&gt;Удалить рецензию клиента&lt;/span&gt;" style="ellipse;whiteSpace=wrap;html=1;" vertex="1" parent="1">
          <mxGeometry x="570" y="420" width="90" height="50" as="geometry" />
        </mxCell>
        <mxCell id="O5MOmxGE6WflzpSw0o6A-16" value="&lt;font style=&quot;font-size: 8px;&quot;&gt;Зарегистрироваться/авторизоваться&lt;/font&gt;" style="ellipse;whiteSpace=wrap;html=1;" vertex="1" parent="1">
          <mxGeometry x="369" y="255" width="90" height="60" as="geometry" />
        </mxCell>
        <mxCell id="O5MOmxGE6WflzpSw0o6A-17" value="&lt;font face=&quot;Helvetica&quot; style=&quot;font-size: 8px;&quot;&gt;&lt;span style=&quot;color: black;&quot;&gt;Работать&lt;br&gt;с данными в профиле&lt;/span&gt;&lt;br&gt;&lt;/font&gt;" style="ellipse;whiteSpace=wrap;html=1;" vertex="1" parent="1">
          <mxGeometry x="369" y="330" width="90" height="60" as="geometry" />
        </mxCell>
        <mxCell id="O5MOmxGE6WflzpSw0o6A-18" value="&lt;font style=&quot;font-size: 8px;&quot;&gt;Найти кинофильм по названию&lt;/font&gt;" style="ellipse;whiteSpace=wrap;html=1;" vertex="1" parent="1">
          <mxGeometry x="369" y="415" width="90" height="60" as="geometry" />
        </mxCell>
        <mxCell id="O5MOmxGE6WflzpSw0o6A-19" value="&lt;font style=&quot;font-size: 8px;&quot;&gt;Отсортировать кинофильмы по параметрам&lt;/font&gt;" style="ellipse;whiteSpace=wrap;html=1;" vertex="1" parent="1">
          <mxGeometry x="369" y="495" width="90" height="60" as="geometry" />
        </mxCell>
      </root>
    </mxGraphModel>
  </diagram>
</mxfile>
